<?xml version="1.0" encoding="UTF-8"?>
<svg width="45px" height="27px" viewBox="0 0 45 27" version="1.1" xmlns="http://www.w3.org/2000/svg" xmlns:xlink="http://www.w3.org/1999/xlink">
    <!-- Generator: Sketch 52.4 (67378) - http://www.bohemiancoding.com/sketch -->
    <title>hint-image-front</title>
    <desc>Created with Sketch.</desc>
    <defs>
        <circle id="path-1" cx="10" cy="10" r="10"></circle>
    </defs>
    <g id="Wireframes" stroke="none" stroke-width="1" fill="none" fill-rule="evenodd">
        <g id="9.4-Input-Fields-3/3" transform="translate(-108.000000, -738.000000)">
            <g id="Security-Code" transform="translate(68.000000, 424.000000)">
                <g transform="translate(37.000000, 289.000000)" id="Hint">
                    <g transform="translate(0.000000, 21.000000)">
                        <g id="hint-image-front" transform="translate(3.000000, 4.000000)">
                            <g id="Credit-Card">
                                <path d="M37,6.45780228 C36.0529588,6.16035383 35.0452057,6 34,6 C30.2985882,6 27.0668691,8.01099315 25.337822,11 L3,11 L3,16 L24,16 C24,19.2711979 25.5706862,22.1755424 27.9990251,24 L1,24 C0.44771525,24 6.76353751e-17,23.5522847 0,23 L0,1 C-6.76353751e-17,0.44771525 0.44771525,1.01453063e-16 1,0 L36,0 C36.5522847,-1.01453063e-16 37,0.44771525 37,1 L37,6.45780228 Z" id="Combined-Shape" fill="#62A0FF"></path>
                                <path d="M37,6.45780228 C36.0529588,6.16035383 35.0452057,6 34,6 C31.2026059,6 28.6734905,7.14863777 26.8585672,9 L0,9 L0,3 L37,3 L37,6.45780228 Z" id="Combined-Shape" fill="#5F5F5F"></path>
                            </g>
                            <g id="Zoom" transform="translate(24.000000, 6.000000)">
                                <mask id="mask-2" fill="white">
                                    <use xlink:href="#path-1"></use>
                                </mask>
                                <use id="Mask" stroke="#FFFFFF" stroke-width="1.5" xlink:href="#path-1"></use>
                                <g id="Group-Copy" mask="url(#mask-2)">
                                    <g transform="translate(-43.923077, -15.615385)">
                                        <path d="M2,0 L66.4764268,-1.11022302e-16 C67.0287115,-2.12475365e-16 67.4764268,0.44771525 67.4764268,1 L67.4764268,45.2444708 C67.4764268,45.7967556 67.0287115,46.2444708 66.4764268,46.2444708 L2,46.2444708 C1.44771525,46.2444708 1,45.7967556 1,45.2444708 L1,1 C1,0.44771525 1.44771525,1.01453063e-16 2,0 Z M4.92307692,19.6153846 L4.92307692,28.6153846 L59.9230769,28.6153846 L59.9230769,19.6153846 L4.92307692,19.6153846 Z" id="Combined-Shape" fill="#62A0FF" fill-rule="evenodd"></path>
                                        <polygon id="Rectangle-3-Copy" fill="#5F5F5F" fill-rule="evenodd" points="0.923076923 5.61538462 66.9230769 5.61538462 66.9230769 17.6153846 0.923076923 17.6153846"></polygon>
                                        <text id="123" fill="none" font-family="SFUIText-Regular, SF UI Text" font-size="6" font-weight="normal">
                                            <tspan x="47.6762326" y="26.1043262" fill="#5F5F5F">123</tspan>
                                        </text>
                                    </g>
                                </g>
                            </g>
                        </g>
                    </g>
                </g>
            </g>
        </g>
    </g>
</svg>