<?xml version="1.0" encoding="UTF-8"?>
<svg width="14px" height="14px" viewBox="0 0 14 14" version="1.1" xmlns="http://www.w3.org/2000/svg" xmlns:xlink="http://www.w3.org/1999/xlink">
    <!-- Generator: Sketch 52.4 (67378) - http://www.bohemiancoding.com/sketch -->
    <title>Shape</title>
    <desc>Created with Sketch.</desc>
    <g id="Wireframes" stroke="none" stroke-width="1" fill="none" fill-rule="evenodd">
        <g id="9.1-UI-Components" transform="translate(-89.000000, -663.000000)" fill="#D70022">
            <g id="General-Error-Copy" transform="translate(83.000000, 657.000000)">
                <g id="Icon-/-Identity-Fill-/-Web" transform="translate(13.000000, 13.000000) rotate(180.000000) translate(-13.000000, -13.000000) translate(6.000000, 6.000000)">
                    <path d="M7,0 C10.8659932,-2.22044605e-16 14,3.13400675 14,7 C14,10.8659932 10.8659932,14 7,14 C3.13400675,14 -5.63993297e-14,10.8659932 -5.68434189e-14,7 C-5.63993297e-14,3.13400675 3.13400675,2.44249065e-15 7,0 Z M7,2.33333333 C7.64433221,2.33333333 8.16666667,2.85566779 8.16666667,3.5 C8.16666667,4.14433221 7.64433221,4.66666667 7,4.66666667 C6.35566779,4.66666667 5.83333333,4.14433221 5.83333333,3.5 C5.83333333,2.85566779 6.35566779,2.33333333 7,2.33333333 Z M7,5.83333333 C7.64433221,5.83333333 8.16666667,6.35566779 8.16666667,7 L8.16666667,10.5 C8.16666667,11.1443322 7.64433221,11.6666667 7,11.6666667 C6.35566779,11.6666667 5.83333333,11.1443322 5.83333333,10.5 L5.83333333,7 C5.83333333,6.35566779 6.35566779,5.83333333 7,5.83333333 Z" id="Shape"></path>
                </g>
            </g>
        </g>
    </g>
</svg>