<?xml version="1.0" encoding="UTF-8"?>
<svg width="50px" height="50px" viewBox="0 0 50 50" version="1.1" xmlns="http://www.w3.org/2000/svg" xmlns:xlink="http://www.w3.org/1999/xlink">
    <!-- Generator: Sketch 52.2 (67145) - http://www.bohemiancoding.com/sketch -->
    <title>Combined Shape Copy</title>
    <desc>Created with Sketch.</desc>
    <g id="Page-1" stroke="none" stroke-width="1" fill="none" fill-rule="evenodd" opacity="0.8">
        <g id="5.1-UI-Components" transform="translate(-635.000000, -877.000000)" fill="#FFFFFF">
            <g id="Share-Copy-2" transform="translate(635.000000, 876.000000)">
                <g id="icon-/-social-/-twitter-/-gray-copy" transform="translate(0.000000, 1.000000)">
                    <path d="M25,50 C11.1928813,50 0,38.8071187 0,25 C0,11.1928813 11.1928813,0 25,0 C38.8071187,0 50,11.1928813 50,25 C50,38.8071187 38.8071187,50 25,50 Z M29,21.5007692 L25.9330769,21.5007692 L25.9330769,19.4169231 C25.9330769,18.6346154 26.4384615,18.4546154 26.7846154,18.4546154 L28.9515385,18.4546154 L28.9515385,15.0138462 L25.9746154,15 C22.6653846,15 21.9107692,17.5684615 21.9107692,19.2092308 L21.9107692,21.5007692 L20,21.5007692 L20,25.0453846 L21.9107692,25.0453846 L21.9107692,35.0769231 L25.9330769,35.0769231 L25.9330769,25.0453846 L28.6469231,25.0453846 L29,21.5007692 Z" id="Combined-Shape-Copy"></path>
                </g>
            </g>
        </g>
    </g>
</svg>