<?xml version="1.0" encoding="UTF-8"?>
<svg width="24px" height="18px" viewBox="0 0 24 18" version="1.1" xmlns="http://www.w3.org/2000/svg" xmlns:xlink="http://www.w3.org/1999/xlink">
    <!-- Generator: Sketch 52.4 (67378) - http://www.bohemiancoding.com/sketch -->
    <title>email icon</title>
    <desc>Created with Sketch.</desc>
    <defs>
        <path d="M19.5,0 L4.5,0 C1.95,0 0,1.95 0,4.5 L0,13.5 C0,16.05 1.95,18 4.5,18 L19.5,18 C22.05,18 24,16.05 24,13.5 L24,4.5 C24,1.95 22.05,0 19.5,0 Z M19.5,2 C19.65,2 19.8,2 19.95,2.15 L19.8,2.15 L12,7.85 L4.2,2.15 L4.05,2.15 C4.2,2 4.35,2 4.5,2 L19.5,2 Z M21,13.5 C21,14.4 20.4,15 19.5,15 L4.5,15 C3.6,15 3,14.4 3,13.5 L3,4.2 C3,4.35 3.15,4.35 3.3,4.35 L11.55,10.35 C11.7,10.5 11.85,10.5 12,10.5 C12.15,10.5 12.3,10.5 12.45,10.35 L20.7,4.35 C20.85,4.35 20.85,4.2 20.85,4.05 C21,4.2 21,4.35 21,4.5 L21,13.5 Z" id="path-1"></path>
    </defs>
    <g id="Page-1" stroke="none" stroke-width="1" fill="none" fill-rule="evenodd">
        <g id="3.3-Subscription-Confirmation" transform="translate(-245.000000, -403.000000)">
            <g id="Share" transform="translate(202.000000, 370.000000)">
                <g id="Email" transform="translate(0.000000, 22.000000)">
                    <g id="email-icon" transform="translate(43.000000, 11.000000)">
                        <mask id="mask-2" fill="white">
                            <use xlink:href="#path-1"></use>
                        </mask>
                        <use id="Shape" fill="#FFFFFF" fill-rule="nonzero" xlink:href="#path-1"></use>
                    </g>
                </g>
            </g>
        </g>
    </g>
</svg>