<?xml version="1.0" encoding="UTF-8"?>
<svg width="161px" height="43px" viewBox="0 0 161 43" version="1.1" xmlns="http://www.w3.org/2000/svg" xmlns:xlink="http://www.w3.org/1999/xlink">
    <!-- Generator: Sketch 52.4 (67378) - http://www.bohemiancoding.com/sketch -->
    <title>Facebook</title>
    <desc>Created with Sketch.</desc>
    <g id="Page-1" stroke="none" stroke-width="1" fill="none" fill-rule="evenodd">
        <g id="3.3-Subscription-Confirmation" transform="translate(-372.000000, -391.000000)">
            <g id="Share" transform="translate(202.000000, 370.000000)">
                <g id="Facebook" transform="translate(171.000000, 22.000000)">
                    <path d="M2.5,0.5 L156.5,0.5 C157.604569,0.5 158.5,1.3954305 158.5,2.5 L158.5,38.5 C158.5,39.6045695 157.604569,40.5 156.5,40.5 L2.5,40.5 C1.3954305,40.5 0.5,39.6045695 0.5,38.5 L0.5,2.5 C0.5,1.3954305 1.3954305,0.5 2.5,0.5 Z" id="Rectangle-12" stroke="#FFFFFF" stroke-width="3"></path>
                    <g id="Group-2" transform="translate(49.000000, 9.000000)" fill="#FFFFFF">
                        <text id="Share" font-family="SFUIDisplay-Bold, SF UI Display" font-size="15" font-weight="bold" line-spacing="16">
                            <tspan x="18.5" y="16">Share</tspan>
                        </text>
                        <path d="M9,6.50076923 L5.93307692,6.50076923 L5.93307692,4.41692308 C5.93307692,3.63461538 6.43846154,3.45461538 6.78461538,3.45461538 L8.95153846,3.45461538 L8.95153846,0.0138461538 L5.97461538,-5.61328761e-13 C2.66538462,-5.61328761e-13 1.91076923,2.56846154 1.91076923,4.20923077 L1.91076923,6.50076923 L0,6.50076923 L0,10.0453846 L1.91076923,10.0453846 L1.91076923,20.0769231 L5.93307692,20.0769231 L5.93307692,10.0453846 L8.64692308,10.0453846 L9,6.50076923" id="facebook-icon"></path>
                    </g>
                </g>
            </g>
        </g>
    </g>
</svg>