<?xml version="1.0" encoding="UTF-8"?>
<svg width="51px" height="50px" viewBox="0 0 51 50" version="1.1" xmlns="http://www.w3.org/2000/svg" xmlns:xlink="http://www.w3.org/1999/xlink">
    <!-- Generator: Sketch 52.4 (67378) - http://www.bohemiancoding.com/sketch -->
    <title>moz-fav-bw-rgb</title>
    <desc>Created with Sketch.</desc>
    <g id="Page-1" stroke="none" stroke-width="1" fill="none" fill-rule="evenodd">
        <g id="6.4-Email---No-Breaches" transform="translate(-936.000000, -1654.000000)" fill-rule="nonzero">
            <g id="Footer" transform="translate(671.000000, 1560.000000)">
                <g id="moz-fav-bw-rgb" transform="translate(265.440000, 94.000000)">
                    <rect id="Rectangle-path" fill="#000000" x="0" y="0" width="50" height="50"></rect>
                    <path d="M42.5735294,31.3235294 L45.4411765,31.3235294 L45.4411765,36.0294118 L36.3970588,36.0294118 L36.3970588,23.8235294 C36.3970588,20.0735294 35.1470588,18.6764706 32.7205882,18.6764706 C29.7794118,18.6764706 28.6029412,20.8088235 28.6029412,23.75 L28.6029412,31.25 L31.4705882,31.25 L31.4705882,35.9558824 L22.4264706,35.9558824 L22.4264706,23.8235294 C22.4264706,20.0735294 21.1764706,18.6764706 18.75,18.6764706 C15.8088235,18.6764706 14.6323529,20.8088235 14.6323529,23.75 L14.6323529,31.25 L18.75,31.25 L18.75,35.9558824 L5.51470588,35.9558824 L5.51470588,31.25 L8.38235294,31.25 L8.38235294,19.1176471 L5.51470588,19.1176471 L5.51470588,14.4117647 L14.5588235,14.4117647 L14.5588235,17.6470588 C15.8823529,15.3676471 18.0882353,13.9705882 21.1029412,13.9705882 C24.1911765,13.9705882 27.0588235,15.4411765 28.0882353,18.6029412 C29.2647059,15.7352941 31.6911765,13.9705882 35.0735294,13.9705882 C38.9705882,13.9705882 42.5,16.3235294 42.5,21.3970588 L42.5,31.3235294 L42.5735294,31.3235294 Z" id="Shape" fill="#FFFFFF"></path>
                </g>
            </g>
        </g>
    </g>
</svg>