<?xml version="1.0" encoding="UTF-8"?>
<svg width="150px" height="43px" viewBox="0 0 150 43" version="1.1" xmlns="http://www.w3.org/2000/svg" xmlns:xlink="http://www.w3.org/1999/xlink">
    <!-- Generator: Sketch 52.2 (67145) - http://www.bohemiancoding.com/sketch -->
    <title>mozilla-logo</title>
    <desc>Created with Sketch.</desc>
    <defs>
        <polygon id="path-1" points="0.0045 0.010275 150 0.010275 150 42.9 0.0045 42.9"></polygon>
    </defs>
    <g id="Page-1" stroke="none" stroke-width="1" fill="none" fill-rule="evenodd">
        <g id="1.1-Homepage" transform="translate(-201.000000, -1806.000000)">
            <g id="Footer" transform="translate(1.000000, 1755.000000)">
                <g id="moz-logo-1color-white-rgb" transform="translate(200.000000, 51.000000)">
                    <g id="mozilla-logo">
                        <mask id="mask-2" fill="white">
                            <use xlink:href="#path-1"></use>
                        </mask>
                        <g id="Clip-3"></g>
                        <path d="M129.5385,28.512525 C129.5385,29.718825 130.1205,30.676275 131.7435,30.676275 C133.6575,30.676275 135.696,29.30295 135.8205,26.182575 C134.9475,26.0577 133.9905,25.932825 133.11675,25.932825 C131.20275,25.932825 129.5385,26.473575 129.5385,28.512525" id="Fill-2" fill="#FFFFFE" mask="url(#mask-2)"></path>
                        <path d="M139.9395,34.503975 C137.4435,34.503975 136.07025,33.04755 135.8205,30.758925 C134.739,32.673075 132.825,34.503975 129.7875,34.503975 C127.08375,34.503975 124.005,33.04755 124.005,29.1363 C124.005,24.51825 128.45625,23.4363 132.74175,23.4363 C133.782,23.4363 134.86425,23.47815 135.8205,23.60295 L135.8205,22.978725 C135.8205,21.06465 135.77925,18.776475 132.74175,18.776475 C131.619,18.776475 130.74525,18.85995 129.87075,19.317225 L129.26475,21.42885 L124.97925,20.9712 L125.7105,16.654875 C128.99775,15.323325 130.66125,14.948775 133.74075,14.948775 C137.7765,14.948775 141.18825,17.02905 141.18825,21.314775 L141.18825,29.4696 C141.18825,30.5514 141.6045,30.925575 142.47825,30.925575 C142.728,30.925575 142.977,30.8838 143.26875,30.800775 L143.31,33.63 C142.31175,34.171125 141.105,34.503975 139.9395,34.503975 Z M111.141,34.0878 L119.25375,5.462475 L124.5375,5.462475 L116.42475,34.0878 L111.141,34.0878 Z M100.23975,34.0878 L108.3525,5.462475 L113.63625,5.462475 L105.5235,34.0878 L100.23975,34.0878 Z M91.10925,22.06365 L96.726,22.06365 L96.726,15.323175 L91.10925,15.323175 L91.10925,22.06365 Z M91.10925,34.087875 L96.726,34.087875 L96.726,27.3474 L91.10925,27.3474 L91.10925,34.087875 Z M86.0145,34.087875 L69.6216,34.087875 L69.080925,31.2585 L79.39875,19.400475 L73.53285,19.400475 L72.70065,22.313325 L68.831175,21.897 L69.4968,15.3231 L85.97325,15.3231 L86.3895,18.1524 L75.987,30.0105 L82.062,30.0105 L82.93575,27.0981 L87.18,27.5139 L86.0145,34.087875 Z M55.754325,34.503675 C49.970775,34.503675 45.9765,30.96735 45.9765,24.975975 C45.9765,19.483875 49.305225,14.94885 56.045325,14.94885 C62.785425,14.94885 66.07245,19.483875 66.07245,24.7263 C66.07245,30.717675 61.745325,34.503675 55.754325,34.503675 Z M43.64115,34.087875 L35.7774,34.087875 L35.7774,23.519625 C35.7774,20.274375 34.6959,19.0263 32.573925,19.0263 C29.9943,19.0263 28.9542,20.8569 28.9542,23.4783 L28.9542,30.0105 L31.45035,30.0105 L31.45035,34.087875 L23.586975,34.087875 L23.586975,23.519625 C23.586975,20.274375 22.5051,19.0263 20.383125,19.0263 C17.8035,19.0263 16.763325,20.8569 16.763325,23.4783 L16.763325,30.0105 L20.341725,30.0105 L20.341725,34.087875 L8.899575,34.087875 L8.899575,30.0105 L11.396175,30.0105 L11.396175,19.400475 L8.899575,19.400475 L8.899575,15.3231 L16.763325,15.3231 L16.763325,18.1524 C17.8866,16.155675 19.842375,14.948925 22.4634,14.948925 C25.167825,14.948925 27.66435,16.238775 28.57965,18.9846 C29.61975,16.488075 31.741725,14.948925 34.6959,14.948925 C38.066025,14.948925 41.145,16.987425 41.145,21.4398 L41.145,30.0105 L43.64115,30.0105 L43.64115,34.087875 Z M0,42.9 L150,42.9 L150,0.010275 L0,0.010275 L0,42.9 Z" id="Fill-4" fill="#FFFFFE" mask="url(#mask-2)"></path>
                    </g>
                </g>
            </g>
        </g>
    </g>
</svg>