<?xml version="1.0" encoding="UTF-8"?>
<svg width="25px" height="26px" viewBox="0 0 25 26" version="1.1" xmlns="http://www.w3.org/2000/svg" xmlns:xlink="http://www.w3.org/1999/xlink">
    <!-- Generator: Sketch 52.4 (67378) - http://www.bohemiancoding.com/sketch -->
    <title>Outlook.com_icon</title>
    <desc>Created with Sketch.</desc>
    <g id="Page-1" stroke="none" stroke-width="1" fill="none" fill-rule="evenodd">
        <g id="3.3-Subscription-Confirmation" transform="translate(-947.000000, -476.000000)" fill="#0072C6">
            <g id="Share" transform="translate(202.000000, 370.000000)">
                <g id="Email---On-click" transform="translate(701.000000, 0.000000)">
                    <g id="Outlook.com_icon" transform="translate(44.000000, 106.000000)">
                        <path d="M15.6996483,5.92367524 L15.6996483,10.7360038 L17.3813762,11.794938 C17.4257295,11.8078743 17.5218281,11.8087988 17.5661814,11.794938 L24.8040778,6.91515542 C24.8040778,6.33763892 24.2653703,5.92367524 23.961367,5.92367524 L15.6996483,5.92367524 Z" id="path3"></path>
                        <path d="M15.6996483,12.5313868 L17.2344559,13.5857007 C17.4506781,13.7446333 17.7112535,13.5857007 17.7112535,13.5857007 C17.4516021,13.7446333 24.8050024,8.86023066 24.8050024,8.86023066 L24.8050024,17.7050097 C24.8050024,18.667845 24.1886769,19.0716443 23.4956578,19.0716443 L15.6987243,19.0716443 L15.6987243,12.5313868 L15.6996483,12.5313868 Z" id="path5"></path>
                        <g id="g23" transform="translate(0.064201, 0.187321)">
                            <path d="M7.68882223,10.1254794 C7.16582339,10.1254794 6.74908756,10.3712704 6.44138682,10.8619283 C6.13368609,11.3525862 5.97937371,12.0021767 5.97937371,12.8106996 C5.97937371,13.6312349 6.13368609,14.2799013 6.44138682,14.7566988 C6.74908756,15.2344204 7.15288702,15.4718951 7.65186118,15.4718951 C8.16654379,15.4718951 8.57496338,15.2399646 8.87619593,14.7761034 C9.17742848,14.3122422 9.32896878,13.6681959 9.32896878,12.8448886 C9.32896878,11.9864682 9.18297264,11.3183972 8.89005632,10.8406757 C8.59714001,10.3638782 8.19703665,10.1254794 7.68882223,10.1254794 Z" id="path25"></path>
                            <path d="M0.407495566,3.29230544 L0.407495566,22.1193398 L14.7299021,25.122425 L14.7299021,0.520226765 L0.407495566,3.29230544 Z M9.99149559,15.888631 C9.38625841,16.6851416 8.59714001,17.0843209 7.62321637,17.0843209 C6.67424143,17.0843209 5.90175551,16.6980779 5.30391054,15.926516 C4.7069896,15.1540301 4.4076051,14.1486896 4.4076051,12.9086464 C4.4076051,11.5993012 4.7106857,10.5403672 5.31777093,9.73184422 C5.92485616,8.92332127 6.72875898,8.51859778 7.72947938,8.51859778 C8.67475821,8.51859778 9.43985193,8.90484074 10.0229125,9.67917472 C10.6068971,10.4535087 10.8988893,11.4736337 10.8988893,12.7404736 C10.8998134,14.0424266 10.5967328,15.0921204 9.99149559,15.888631 Z" id="path27" fill-rule="nonzero"></path>
                        </g>
                    </g>
                </g>
            </g>
        </g>
    </g>
</svg>