<?xml version="1.0" encoding="UTF-8"?>
<svg width="22px" height="22px" viewBox="0 0 22 22" version="1.1" xmlns="http://www.w3.org/2000/svg" xmlns:xlink="http://www.w3.org/1999/xlink">
    <!-- Generator: Sketch 52.2 (67145) - http://www.bohemiancoding.com/sketch -->
    <title>Shape</title>
    <desc>Created with Sketch.</desc>
    <g id="Page-1" stroke="none" stroke-width="1" fill="none" fill-rule="evenodd">
        <g id="1.1-Homepage" transform="translate(-401.000000, -1949.000000)" fill="#FFFFFF">
            <g id="Footer" transform="translate(1.000000, 1755.000000)">
                <g id="Support" transform="translate(399.000000, 56.000000)">
                    <g id="Octicons-mark-github" transform="translate(1.000000, 138.000000)">
                        <path d="M11,0 C4.9225,0 0,4.91842273 0,10.9908888 C0,15.8543571 3.14875,19.9622017 7.52125,21.4184945 C8.07125,21.5146648 8.2775,21.1849381 8.2775,20.8964273 C8.2775,20.6353937 8.26375,19.7698612 8.26375,18.8493743 C5.5,19.3577029 4.785,18.1761823 4.565,17.5579448 C4.44125,17.2419568 3.905,16.2665154 3.4375,16.0054818 C3.0525,15.7994026 2.5025,15.291074 3.42375,15.2773354 C4.29,15.2635968 4.90875,16.0741748 5.115,16.4039015 C6.105,18.0662734 7.68625,17.5991607 8.31875,17.3106498 C8.415,16.5962421 8.70375,16.1153907 9.02,15.8406184 C6.5725,15.5658462 4.015,14.6178821 4.015,10.4138671 C4.015,9.21860796 4.44125,8.22942797 5.1425,7.46006576 C5.0325,7.18529354 4.6475,6.05872744 5.2525,4.54748023 C5.2525,4.54748023 6.17375,4.2589694 8.2775,5.67404633 C9.1575,5.42675133 10.0925,5.30310383 11.0275,5.30310383 C11.9625,5.30310383 12.8975,5.42675133 13.7775,5.67404633 C15.88125,4.24523079 16.8025,4.54748023 16.8025,4.54748023 C17.4075,6.05872744 17.0225,7.18529354 16.9125,7.46006576 C17.61375,8.22942797 18.04,9.20486935 18.04,10.4138671 C18.04,14.6316207 15.46875,15.5658462 13.02125,15.8406184 C13.42,16.1840837 13.76375,16.843537 13.76375,17.8739329 C13.76375,19.3439642 13.75,20.5254848 13.75,20.8964273 C13.75,21.1849381 13.95625,21.5284034 14.50625,21.4184945 C18.85125,19.9622017 22,15.8406184 22,10.9908888 C22,4.91842273 17.0775,0 11,0 Z" id="Shape"></path>
                    </g>
                </g>
            </g>
        </g>
    </g>
</svg>