<?xml version="1.0" encoding="UTF-8"?>
<svg width="137px" height="74px" viewBox="0 0 137 74" version="1.1" xmlns="http://www.w3.org/2000/svg" xmlns:xlink="http://www.w3.org/1999/xlink">
    <!-- Generator: Sketch 51.1 (57501) - http://www.bohemiancoding.com/sketch -->
    <title>Subscribe Icon</title>
    <desc>Created with Sketch.</desc>
    <defs></defs>
    <g id="Page-1" stroke="none" stroke-width="1" fill="none" fill-rule="evenodd">
        <g id="1-Homepage" transform="translate(-202.000000, -613.000000)">
            <g id="Subscribe" transform="translate(1.000000, 549.000000)">
                <g id="Subscribe-Icon" transform="translate(201.000000, 66.000000)">
                    <path d="M55.3985669,39.5454545 C55.0087118,39.5454545 54.6923077,39.3104895 54.6923077,39.020979 C54.6923077,38.7314685 55.0087118,38.4965035 55.3985669,38.4965035 L62.3776569,38.4965035 C62.767512,38.4965035 63.0839161,38.7314685 63.0839161,39.020979 C63.0839161,39.3104895 62.767512,39.5454545 62.3776569,39.5454545 L55.3985669,39.5454545 Z" id="Fill-1" fill-opacity="0.5" fill="#EAEAEE"></path>
                    <path d="M42.3671329,39.5454545 L40.7937063,39.5454545 C40.3594406,39.5454545 40.006993,39.3104895 40.006993,39.020979 C40.006993,38.7314685 40.3594406,38.4965035 40.7937063,38.4965035 L42.3671329,38.4965035 C42.8013986,38.4965035 43.1538462,38.7314685 43.1538462,39.020979 C43.1538462,39.3104895 42.8013986,39.5454545 42.3671329,39.5454545" id="Fill-3" fill-opacity="0.5" fill="#EAEAEE"></path>
                    <path d="M35.0244755,39.5454545 L30.3041958,39.5454545 C29.8699301,39.5454545 29.5174825,39.3104895 29.5174825,39.020979 C29.5174825,38.7314685 29.8699301,38.4965035 30.3041958,38.4965035 L35.0244755,38.4965035 C35.4587413,38.4965035 35.8111888,38.7314685 35.8111888,39.020979 C35.8111888,39.3104895 35.4587413,39.5454545 35.0244755,39.5454545" id="Fill-5" fill-opacity="0.5" fill="#EAEAEE"></path>
                    <path d="M0.146853147,38.4965035 L18.2727273,38.4965035 C18.6896224,38.4965035 19.027972,38.7314685 19.027972,39.020979 C19.027972,39.3104895 18.6896224,39.5454545 18.2727273,39.5454545 L0.146853147,39.5454545" id="Fill-7" fill-opacity="0.5" fill="#EAEAEE"></path>
                    <path d="M0.146853147,46.8881119 L62.6523687,46.8881119 C63.4696038,46.8881119 64.1328671,46.1847902 64.1328671,45.3146853 C64.1328671,44.4445804 63.4696038,43.7412587 62.6523687,43.7412587 L0.146853147,43.7412587" id="Fill-9" fill-opacity="0.5" fill="#EAEAEE"></path>
                    <path d="M62.3496503,55.2797203 L56.4755245,55.2797203 C56.0702098,55.2797203 55.7412587,55.0447552 55.7412587,54.7552448 C55.7412587,54.4657343 56.0702098,54.2307692 56.4755245,54.2307692 L62.3496503,54.2307692 C62.754965,54.2307692 63.0839161,54.4657343 63.0839161,54.7552448 C63.0839161,55.0447552 62.754965,55.2797203 62.3496503,55.2797203" id="Fill-13" fill-opacity="0.5" fill="#EAEAEE"></path>
                    <path d="M45.5378258,55.2797203 L30.280356,55.2797203 C29.8592498,55.2797203 29.5174825,55.0447552 29.5174825,54.7552448 C29.5174825,54.4657343 29.8592498,54.2307692 30.280356,54.2307692 L45.5378258,54.2307692 C45.958932,54.2307692 46.3006993,54.4657343 46.3006993,54.7552448 C46.3006993,55.0447552 45.958932,55.2797203 45.5378258,55.2797203" id="Fill-15" fill-opacity="0.5" fill="#EAEAEE"></path>
                    <path d="M20.4265734,55.2797203 L17.6293706,55.2797203 C17.2433566,55.2797203 16.9300699,55.0447552 16.9300699,54.7552448 C16.9300699,54.4657343 17.2433566,54.2307692 17.6293706,54.2307692 L20.4265734,54.2307692 C20.8125874,54.2307692 21.1258741,54.4657343 21.1258741,54.7552448 C21.1258741,55.0447552 20.8125874,55.2797203 20.4265734,55.2797203" id="Fill-17" fill-opacity="0.5" fill="#EAEAEE"></path>
                    <path d="M0.146853147,54.2307692 L11.9938297,54.2307692 C12.4025504,54.2307692 12.7342657,54.4657343 12.7342657,54.7552448 C12.7342657,55.0447552 12.4025504,55.2797203 11.9938297,55.2797203 L0.146853147,55.2797203" id="Fill-19" fill-opacity="0.5" fill="#EAEAEE"></path>
                    <path d="M71.6110433,33.6533576 L71.6110433,10.0696651 C71.6110433,7.18988924 73.9454747,4.85545791 76.8252505,4.85545791 L121.92972,4.85545791 C124.809496,4.85545791 127.145413,7.18988924 127.145413,10.0696651 L127.145413,33.6533576" id="Stroke-42" stroke="#0A84FF" stroke-width="3"></path>
                    <path d="M92.481179,4.93006993 C95.184823,1.95531031 97.9731479,0.467930507 100.846154,0.467930507 C103.71916,0.467930507 106.30227,1.95531031 108.595485,4.93006993" id="Stroke-42-Copy" stroke="#0A84FF" stroke-width="3"></path>
                    <path d="M64.6573427,28.5314685 L70.3394253,23.7963997" id="Line-2" stroke="#0A84FF" stroke-width="3" stroke-linecap="square"></path>
                    <path d="M128.643357,28.5314685 L134.325439,23.7963997" id="Line-2-Copy" stroke="#0A84FF" stroke-width="3" stroke-linecap="square" transform="translate(131.484398, 26.163934) scale(-1, 1) translate(-131.484398, -26.163934) "></path>
                    <path d="M81.4551812,15.0906985 L116.146227,15.0906985" id="Stroke-44" stroke="#0A84FF" stroke-width="3" stroke-linecap="round"></path>
                    <path d="M81.4551812,22.9574622 L113.608221,22.9574622" id="Stroke-46" stroke="#0A84FF" stroke-width="3" stroke-linecap="round"></path>
                    <path d="M81.4551812,30.824226 L111.969215,30.824226" id="Stroke-48" stroke="#0A84FF" stroke-width="3" stroke-linecap="round"></path>
                    <path d="M65.1818182,30.1048951 L84.0629371,42.6923077" id="Line" stroke="#0A84FF" stroke-width="3" stroke-linecap="square"></path>
                    <path d="M115.531469,30.1048951 L134.412587,42.6923077" id="Line" stroke="#0A84FF" stroke-width="3" stroke-linecap="square" transform="translate(124.972028, 36.398601) scale(-1, 1) translate(-124.972028, -36.398601) "></path>
                    <path d="M64.92158,62.9729125 C64.278934,63.5806803 64.0814747,63.8003726 63.9110141,64.0619355 C63.776099,64.2689559 63.6895241,64.4699914 63.6318163,64.7102607 C63.5589045,65.0138324 63.534965,65.3082502 63.534965,66.1927702 L63.534965,67.3261454 C63.534965,68.5344564 64.5144946,69.513986 65.7228056,69.513986 L132.822649,69.513986 C134.03096,69.513986 135.01049,68.5344564 135.01049,67.3261454 L135.01049,66.0952774 C135.01049,65.233913 134.988693,64.9485852 134.921955,64.6555273 C134.869168,64.423733 134.789781,64.2299085 134.6648,64.0276835 C134.506787,63.7720101 134.322168,63.5533719 133.717932,62.9394923 L110.144191,38.9894913 C106.916697,35.7104837 105.335069,34.6154826 103.226971,33.942335 C101.417337,33.3644912 99.5729943,33.331471 97.7438354,33.8441676 C95.6129932,34.4414232 93.9931819,35.4791073 90.6503827,38.6404835 L64.92158,62.9729125 Z" id="Rectangle-2" stroke="#0A84FF" stroke-width="3"></path>
                    <path d="M63.6083916,30.6293706 L63.6083916,66.2937063" id="Line-3" stroke="#0A84FF" stroke-width="3" stroke-linecap="square"></path>
                    <path d="M134.937063,30.6293706 L134.937063,66.2937063" id="Line-3" stroke="#0A84FF" stroke-width="3" stroke-linecap="square"></path>
                </g>
            </g>
        </g>
    </g>
</svg>