<?xml version="1.0" encoding="UTF-8"?>
<svg width="161px" height="43px" viewBox="0 0 161 43" version="1.1" xmlns="http://www.w3.org/2000/svg" xmlns:xlink="http://www.w3.org/1999/xlink">
    <!-- Generator: Sketch 52.4 (67378) - http://www.bohemiancoding.com/sketch -->
    <title>Twitter</title>
    <desc>Created with Sketch.</desc>
    <g id="Page-1" stroke="none" stroke-width="1" fill="none" fill-rule="evenodd">
        <g id="3.3-Subscription-Confirmation" transform="translate(-543.000000, -391.000000)">
            <g id="Share" transform="translate(202.000000, 370.000000)">
                <g id="Twitter" transform="translate(342.000000, 22.000000)">
                    <path d="M2.5,0.5 L156.5,0.5 C157.604569,0.5 158.5,1.3954305 158.5,2.5 L158.5,38.5 C158.5,39.6045695 157.604569,40.5 156.5,40.5 L2.5,40.5 C1.3954305,40.5 0.5,39.6045695 0.5,38.5 L0.5,2.5 C0.5,1.3954305 1.3954305,0.5 2.5,0.5 Z" id="Rectangle-12" stroke="#FFFFFF" stroke-width="3"></path>
                    <g id="Group-3" transform="translate(40.000000, 10.000000)" fill="#FFFFFF">
                        <text id="Tweet" font-family="SFUIDisplay-Bold, SF UI Display" font-size="15" font-weight="bold" line-spacing="16">
                            <tspan x="34" y="16">Tweet</tspan>
                        </text>
                        <path d="M19.2,2.91789474 C19.1810526,2.91157895 19.1684211,2.89263158 19.1494737,2.88 C18.2526316,2.03368421 17.1978947,1.62947368 15.9852632,1.68 L15.9473684,1.59157895 C15.96,1.58526316 15.9663158,1.58526316 15.9726316,1.58526316 C17.0715789,1.32631579 17.7221053,1.06736842 17.9178947,0.783157895 C17.9873684,0.555789474 17.9052632,0.429473684 17.6652632,0.397894737 C17.1094737,0.467368421 16.5978947,0.587368421 16.1431579,0.770526316 C16.7242105,0.397894737 16.9452632,0.132631579 16.8189474,1.05337961e-12 C16.2505263,0.0189473684 15.6378947,0.309473684 14.9936842,0.884210526 C15.2336842,0.473684211 15.3221053,0.252631579 15.2589474,0.214736842 C14.9557895,0.429473684 14.6842105,0.656842105 14.4568421,0.903157895 C13.9705263,1.44631579 13.5789474,1.95157895 13.2821053,2.41263158 L13.2631579,2.45052632 C12.4926316,3.71368421 11.9557895,4.97684211 11.6336842,6.26526316 L11.5136842,6.36 L11.4884211,6.38526316 C11.0273684,5.79789474 10.4715789,5.31157895 9.80842105,4.91368421 C9.02526316,4.39578947 8.10315789,3.90947368 7.04210526,3.43578947 C5.88,2.83578947 4.70526316,2.33684211 3.51789474,1.94526316 C3.51157895,3.28421053 4.16210526,4.35157895 5.45684211,5.12842105 L5.45684211,5.15368421 C4.99578947,5.14105263 4.55368421,5.21684211 4.13052632,5.34947368 C4.21263158,6.59368421 5.09052632,7.44631579 6.74526316,7.92 L6.73894737,7.94526316 C6.08842105,7.90736842 5.55157895,8.13473684 5.13473684,8.60842105 C5.67789474,9.68210526 6.64421053,10.2 8.04,10.1557895 C7.76842105,10.3010526 7.54736842,10.4589474 7.40842105,10.6357895 C7.14947368,10.9010526 7.06736842,11.2168421 7.14947368,11.5831579 C7.45263158,12.1263158 7.98947368,12.3789474 8.78526316,12.3410526 L8.82947368,12.3978947 L8.80421053,12.4231579 C7.43368421,13.8442105 5.78526316,14.4884211 3.84631579,14.3494737 L3.81473684,14.3684211 C2.63368421,14.3621053 1.37052632,13.7873684 0,12.6505263 C1.37684211,14.6463158 3.20210526,16.0863158 5.46315789,16.9894737 C8.05263158,17.8484211 10.6357895,17.9115789 13.2189474,17.1726316 L13.2631579,17.1726316 C15.7705263,16.4463158 17.8926316,14.9494737 19.6484211,12.6884211 C20.4568421,11.5010526 20.9621053,10.3705263 21.1642105,9.29052632 C22.4715789,9.33473684 23.4189474,8.95578947 24,8.14736842 L23.9873684,8.12842105 C23.5515789,8.28 22.6989474,8.23578947 21.4357895,7.97684211 L21.4357895,7.83157895 C21.4357895,7.82526316 21.4357895,7.82526316 21.4421053,7.83157895 C22.8252632,7.67368421 23.64,7.22526316 23.9052632,6.48 C22.9389474,6.85894737 21.9852632,6.86526316 21.0442105,6.51157895 C20.8736842,5.19789474 19.2610526,4.00421053 18.2,2.91789474" id="twitter-icon"></path>
                    </g>
                </g>
            </g>
        </g>
    </g>
</svg>