<?xml version="1.0" encoding="UTF-8"?>
<svg width="874px" height="238px" viewBox="0 0 874 238" version="1.1" xmlns="http://www.w3.org/2000/svg" xmlns:xlink="http://www.w3.org/1999/xlink">
    <!-- Generator: Sketch 51.1 (57501) - http://www.bohemiancoding.com/sketch -->
    <title>waves-header</title>
    <desc>Created with Sketch.</desc>
    <defs></defs>
    <g id="Page-1" stroke="none" stroke-width="1" fill="none" fill-rule="evenodd" fill-opacity="0.04">
        <g id="6.5-Email---New-Breach-Simplified-Version-(No-Icons)" transform="translate(-599.000000, -309.000000)" fill="#FFFFFF" fill-rule="nonzero">
            <g id="Background" transform="translate(482.000000, -42.000000)">
                <g id="waves-header" transform="translate(37.444915, 7.000000)">
                    <g id="header-waves" transform="translate(485.277542, 418.847458) scale(-1, 1) rotate(-60.000000) translate(-485.277542, -418.847458) translate(246.072034, -2.762712)">
                        <path d="M463.523969,730.139154 C465.050567,681.136732 92.156687,63.5826761 92.156687,63.5826761 C92.156687,63.5826761 22.9143249,-88.0336058 2.67619746,77.9959373 C-10.5291807,186.35206 28.6147308,299.391964 85.315218,371.606077 C114.840359,409.031499 148.204422,443.019655 184.819345,472.971482 C227.656714,536.726827 315.284892,798.209523 295.571657,830.623415 C266.115884,879.056679 462.144977,774.403543 463.523969,730.139154 Z" id="Shape"></path>
                        <path d="M478.339785,687.724372 C478.339785,687.724372 82.5121695,54.3250164 82.5121695,54.3250164 C82.5121695,54.3250164 4.38151789,-4.00792177 9.42430884,113.109708 C11.8278982,168.932504 25.4314809,227.567156 58.3448459,283.302896 C153.868808,445.068102 307.042668,490.259269 409.695604,641.577173 C451.781061,703.614202 478.339785,687.724372 478.339785,687.724372 Z" id="Shape" opacity="0.786328125"></path>
                        <path d="M395.312735,723.85086 C333.923749,592.425369 257.339301,535.101485 184.819345,472.971482 C193.251898,485.205238 195.326306,489.522006 199.99794,497.438994 C249.95444,552.614823 318.409062,671.708248 313.064048,821.861495 C312.68523,832.503342 411.66782,764.304006 411.66782,764.304006 C402.815498,758.095386 401.581591,737.270145 395.312735,723.85086 Z" id="Shape"></path>
                    </g>
                </g>
            </g>
        </g>
    </g>
</svg>