<?xml version="1.0" encoding="UTF-8"?>
<svg width="883px" height="247px" viewBox="0 0 883 247" version="1.1" xmlns="http://www.w3.org/2000/svg" xmlns:xlink="http://www.w3.org/1999/xlink">
    <!-- Generator: Sketch 52.4 (67378) - http://www.bohemiancoding.com/sketch -->
    <title>waves-header</title>
    <desc>Created with Sketch.</desc>
    <g id="Page-1" stroke="none" stroke-width="1" fill="none" fill-rule="evenodd" fill-opacity="0.04">
        <g id="6.1-Email---Verify-Subscription" transform="translate(-625.000000, -300.000000)" fill="#FFFFFF" fill-rule="nonzero">
            <g id="Background" transform="translate(486.000000, -44.000000)">
                <g id="waves-header" transform="translate(56.444915, 0.000000)">
                    <g id="header-waves" transform="translate(491.500000, 429.847458) scale(-1, 1) rotate(-60.000000) translate(-491.500000, -429.847458) translate(239.519481, 8.237288)">
                        <path d="M488.278933,730.139154 C489.887061,681.136732 97.0784077,63.5826761 97.0784077,63.5826761 C97.0784077,63.5826761 24.1380875,-88.0336058 2.81912248,77.9959373 C-11.0915022,186.35206 30.1429293,299.391964 89.8715631,371.606077 C120.973524,409.031499 156.119429,443.019655 194.689808,472.971482 C239.814951,536.726827 332.122999,798.209523 311.356959,830.623415 C280.32807,879.056679 486.826295,774.403543 488.278933,730.139154 Z" id="Shape"></path>
                        <path d="M503.886002,687.724372 C503.886002,687.724372 86.918815,54.3250164 86.918815,54.3250164 C86.918815,54.3250164 4.61551727,-4.00792177 9.92762354,113.109708 C12.459579,168.932504 26.7896747,227.567156 61.4608111,283.302896 C162.086326,445.068102 323.440591,490.259269 431.57581,641.577173 C475.908883,703.614202 503.886002,687.724372 503.886002,687.724372 Z" id="Shape" opacity="0.786328125"></path>
                        <path d="M416.42481,723.85086 C351.757283,592.425369 271.082766,535.101485 194.689808,472.971482 C203.57271,485.205238 205.757904,489.522006 210.679032,497.438994 C263.303509,552.614823 335.414019,671.708248 329.783549,821.861495 C329.384499,832.503342 433.653355,764.304006 433.653355,764.304006 C424.328265,758.095386 423.02846,737.270145 416.42481,723.85086 Z" id="Shape"></path>
                    </g>
                </g>
            </g>
        </g>
    </g>
</svg>