<?xml version="1.0" encoding="UTF-8"?>
<svg width="30px" height="22px" viewBox="0 0 30 22" version="1.1" xmlns="http://www.w3.org/2000/svg" xmlns:xlink="http://www.w3.org/1999/xlink">
    <!-- Generator: Sketch 52.4 (67378) - http://www.bohemiancoding.com/sketch -->
    <title>Yahoo_Icon</title>
    <desc>Created with Sketch.</desc>
    <g id="Page-1" stroke="none" stroke-width="1" fill="none" fill-rule="evenodd">
        <g id="3.3-Subscription-Confirmation" transform="translate(-923.000000, -479.000000)">
            <g id="Share" transform="translate(202.000000, 370.000000)">
                <g id="Email---On-click" transform="translate(701.000000, 0.000000)">
                    <g id="Yahoo_Icon" transform="translate(20.000000, 109.000000)">
                        <path d="M11.1325898,-1.50284597e-07 C17.443736,-1.50284597e-07 22.2651814,4.66991938 22.2651814,10.7857249 C22.2651814,16.9015303 17.443736,21.5732755 11.1325898,21.5732755 C4.82144369,21.5732755 -1.76555153e-06,16.9015303 -1.76555153e-06,10.7857249 C-1.76555153e-06,4.66991938 4.82144369,-1.50284597e-07 11.1325898,-1.50284597e-07 Z" id="path61" fill="#6B0094"></path>
                        <g id="g63" transform="translate(2.291143, 5.967931)" fill="#FFFFFF">
                            <g id="id4">
                                <path d="M8.36313579,1.11910112 C8.38869438,0.744850339 8.41607859,0.37242517 8.46902138,0 C5.64479718,0 2.82239859,0 0,0 C0,0.37242517 0,0.744850339 0,1.11910112 C0.850735926,1.17204392 1.67773888,1.25237091 2.53030042,1.30531371 C4.1277123,3.24959217 5.72512417,5.19387062 7.34992026,7.16370767 C7.34992026,8.17692321 7.34992026,9.16092892 7.34992026,10.1741445 C6.44441592,10.2544715 5.53891159,10.3074143 4.63340726,10.3877412 C4.63340726,10.7072236 4.63340726,11.0522646 4.63340726,11.371747 C7.43024725,11.371747 10.2270873,11.371747 12.996543,11.371747 C12.996543,11.0522646 12.996543,10.7072236 12.996543,10.3877412 C12.0910387,10.3329728 11.1855344,10.3074143 10.28003,10.28003 C10.3074143,9.21569733 10.3329728,8.12398041 10.360357,7.05782209 C11.9303847,5.67218138 13.4766794,4.28836629 15.0211485,2.90272559 C15.8189416,2.84978279 16.6185604,2.79684 17.4437377,2.716513 C17.4437377,2.29114504 17.4437377,1.83839287 17.4437377,1.41119929 C15.0740913,1.4385835 12.7300035,1.46414209 10.360357,1.51708488 C10.360357,1.89133566 10.360357,2.23637663 10.360357,2.61062741 C11.2384772,2.66357021 12.1184229,2.6891288 12.996543,2.716513 C11.8518833,3.70234433 10.705398,4.66079146 9.5607383,5.64662279 C8.38869438,4.20803929 7.21665047,2.7438972 6.04460655,1.30531371 C6.81684109,1.22498671 7.58907564,1.17204392 8.36313579,1.11910112 Z" id="path66"></path>
                            </g>
                        </g>
                        <g id="g68" transform="translate(22.664991, 0.746676)" fill="#6B0094">
                            <g id="id5">
                                <path d="M7.35174587,0.321307989 C5.19387062,0.213596788 3.06337958,0.107711201 0.932888537,0 C0.825177336,5.08798504 0.719291749,10.2015287 0.613406162,15.2895137 C1.62479608,15.3953993 2.66357021,15.5012849 3.67496013,15.6089961 C4.89994684,10.4954524 6.12675916,5.40746741 7.35174587,0.321307989 Z M0.319482376,20.8010411 C1.54446909,20.8010411 2.76945579,20.8010411 3.9944425,20.8010411 C3.9944425,19.7896512 3.9944425,18.7782612 3.9944425,17.7394871 C2.66357021,17.6317759 1.33269791,17.5258903 0,17.4200047 C0.105885587,18.5646645 0.213596788,19.6837656 0.319482376,20.8010411 Z" id="path71"></path>
                            </g>
                        </g>
                    </g>
                </g>
            </g>
        </g>
    </g>
</svg>