<?xml version="1.0" encoding="UTF-8"?>
<svg width="15px" height="16px" viewBox="0 0 15 16" version="1.1" xmlns="http://www.w3.org/2000/svg" xmlns:xlink="http://www.w3.org/1999/xlink">
    <!-- Generator: Sketch 52.2 (67145) - http://www.bohemiancoding.com/sketch -->
    <title>Shape Copy 2</title>
    <desc>Created with Sketch.</desc>
    <g id="Page-1" stroke="none" stroke-width="1" fill="none" fill-rule="evenodd">
        <g id="Site" transform="translate(-983.000000, -5060.000000)" fill="#737373" fill-rule="nonzero">
            <g id="if_sort-amount-asc_1608405" transform="translate(599.000000, 5060.000000)">
                <path d="M390.001703,12.2587968 C390.001703,12.3269012 389.973326,12.3950057 389.916572,12.4631101 L387.200908,15.1787741 C387.144154,15.2298524 387.078888,15.2553916 387.005108,15.2553916 C386.937003,15.2553916 386.871737,15.2298524 386.809308,15.1787741 L384.085131,12.454597 C384,12.3637911 383.980136,12.2644722 384.025539,12.1566402 C384.070942,12.0431328 384.156073,11.9863791 384.280931,11.9863791 L385.915437,11.9863791 L385.915437,0.272417707 C385.915437,0.192962543 385.940976,0.1276958 385.992054,0.0766174801 C386.043133,0.02553916 386.1084,0 386.187855,0 L387.822361,0 C387.901816,0 387.967083,0.02553916 388.018161,0.0766174801 C388.06924,0.1276958 388.094779,0.192962543 388.094779,0.272417707 L388.094779,11.9863791 L389.729285,11.9863791 C389.80874,11.9863791 389.874007,12.0119183 389.925085,12.0629966 C389.976163,12.1140749 390.001703,12.1793417 390.001703,12.2587968 Z M398.991487,13.3484677 L398.991487,14.9829739 C398.991487,15.0624291 398.965948,15.1276958 398.914869,15.1787741 C398.863791,15.2298524 398.798524,15.2553916 398.719069,15.2553916 L391.636209,15.2553916 C391.556754,15.2553916 391.491487,15.2298524 391.440409,15.1787741 C391.38933,15.1276958 391.363791,15.0624291 391.363791,14.9829739 L391.363791,13.3484677 C391.363791,13.2690125 391.38933,13.2037457 391.440409,13.1526674 C391.491487,13.1015891 391.556754,13.0760499 391.636209,13.0760499 L398.719069,13.0760499 C398.798524,13.0760499 398.863791,13.1015891 398.914869,13.1526674 C398.965948,13.2037457 398.991487,13.2690125 398.991487,13.3484677 Z M397.356981,8.98978434 L397.356981,10.6242906 C397.356981,10.7037457 397.331442,10.7690125 397.280363,10.8200908 C397.229285,10.8711691 397.164018,10.8967083 397.084563,10.8967083 L391.636209,10.8967083 C391.556754,10.8967083 391.491487,10.8711691 391.440409,10.8200908 C391.38933,10.7690125 391.363791,10.7037457 391.363791,10.6242906 L391.363791,8.98978434 C391.363791,8.91032917 391.38933,8.84506243 391.440409,8.79398411 C391.491487,8.74290579 391.556754,8.71736663 391.636209,8.71736663 L397.084563,8.71736663 C397.164018,8.71736663 397.229285,8.74290579 397.280363,8.79398411 C397.331442,8.84506243 397.356981,8.91032917 397.356981,8.98978434 Z M395.722474,4.63110102 L395.722474,6.26560726 C395.722474,6.34506243 395.696935,6.41032917 395.645857,6.46140749 C395.594779,6.51248581 395.529512,6.53802497 395.450057,6.53802497 L391.636209,6.53802497 C391.556754,6.53802497 391.491487,6.51248581 391.440409,6.46140749 C391.38933,6.41032917 391.363791,6.34506243 391.363791,6.26560726 L391.363791,4.63110102 C391.363791,4.55164586 391.38933,4.48637911 391.440409,4.43530079 C391.491487,4.38422247 391.556754,4.35868331 391.636209,4.35868331 L395.450057,4.35868331 C395.529512,4.35868331 395.594779,4.38422247 395.645857,4.43530079 C395.696935,4.48637911 395.722474,4.55164586 395.722474,4.63110102 Z M394.087968,0.272417707 L394.087968,1.90692395 C394.087968,1.98637911 394.062429,2.05164586 394.011351,2.10272418 C393.960272,2.1538025 393.895006,2.17934166 393.815551,2.17934166 L391.636209,2.17934166 C391.556754,2.17934166 391.491487,2.1538025 391.440409,2.10272418 C391.38933,2.05164586 391.363791,1.98637911 391.363791,1.90692395 L391.363791,0.272417707 C391.363791,0.192962543 391.38933,0.1276958 391.440409,0.0766174801 C391.491487,0.02553916 391.556754,0 391.636209,0 L393.815551,0 C393.895006,0 393.960272,0.02553916 394.011351,0.0766174801 C394.062429,0.1276958 394.087968,0.192962543 394.087968,0.272417707 Z" id="Shape-Copy-2"></path>
            </g>
        </g>
    </g>
</svg>