<?xml version="1.0" encoding="UTF-8"?>
<svg width="15px" height="16px" viewBox="0 0 15 16" version="1.1" xmlns="http://www.w3.org/2000/svg" xmlns:xlink="http://www.w3.org/1999/xlink">
    <!-- Generator: Sketch 52.2 (67145) - http://www.bohemiancoding.com/sketch -->
    <title>Shape Copy 6</title>
    <desc>Created with Sketch.</desc>
    <g id="Page-1" stroke="none" stroke-width="1" fill="none" fill-rule="evenodd" opacity="0.5">
        <g id="Site" transform="translate(-967.000000, -5069.000000)" fill="#737373" fill-rule="nonzero">
            <g id="Data-Table" transform="translate(249.000000, 5042.000000)">
                <g id="Impressions-Copy" transform="translate(626.000000, 4.000000)">
                    <path d="M102.093091,36.3576967 L102.093091,37.993333 C102.093091,38.0728431 102.067534,38.138155 102.016421,38.1892686 C101.965307,38.2403822 101.899995,38.2659391 101.820485,38.2659391 L99.6396365,38.2659391 C99.5601264,38.2659391 99.4948146,38.2403822 99.4437009,38.1892686 C99.3925873,38.138155 99.3670305,38.0728431 99.3670305,37.993333 L99.3670305,36.3576967 C99.3670305,36.2781866 99.3925873,36.2128747 99.4437009,36.1617611 C99.4948146,36.1106474 99.5601264,36.0850906 99.6396365,36.0850906 L101.820485,36.0850906 C101.899995,36.0850906 101.965307,36.1106474 102.016421,36.1617611 C102.067534,36.2128747 102.093091,36.2781866 102.093091,36.3576967 Z M98.0040002,35.2672725 C98.0040002,35.335424 97.9756037,35.4035755 97.9188108,35.471727 L95.2012692,38.1892686 C95.1444763,38.2403822 95.0791644,38.2659391 95.0053336,38.2659391 C94.9371821,38.2659391 94.8718702,38.2403822 94.809398,38.1892686 L92.0833374,35.4632081 C91.9981481,35.3723394 91.9782705,35.2729518 92.0237049,35.1650452 C92.0691392,35.0514593 92.1543286,34.9946664 92.2792731,34.9946664 L93.9149094,34.9946664 L93.9149094,23.2726061 C93.9149094,23.193096 93.9404662,23.1277841 93.9915798,23.0766705 C94.0426935,23.0255568 94.1080053,23 94.1875154,23 L95.8231518,23 C95.9026619,23 95.9679737,23.0255568 96.0190874,23.0766705 C96.070201,23.1277841 96.0957578,23.193096 96.0957578,23.2726061 L96.0957578,34.9946664 L97.7313941,34.9946664 C97.8109042,34.9946664 97.8762161,35.0202232 97.9273297,35.0713369 C97.9784434,35.1224505 98.0040002,35.1877624 98.0040002,35.2672725 Z M103.728727,31.9959998 L103.728727,33.6316361 C103.728727,33.7111462 103.703171,33.7764581 103.652057,33.8275717 C103.600943,33.8786854 103.535631,33.9042422 103.456121,33.9042422 L99.6396365,33.9042422 C99.5601264,33.9042422 99.4948146,33.8786854 99.4437009,33.8275717 C99.3925873,33.7764581 99.3670305,33.7111462 99.3670305,33.6316361 L99.3670305,31.9959998 C99.3670305,31.9164897 99.3925873,31.8511778 99.4437009,31.8000642 C99.4948146,31.7489506 99.5601264,31.7233937 99.6396365,31.7233937 L103.456121,31.7233937 C103.535631,31.7233937 103.600943,31.7489506 103.652057,31.8000642 C103.703171,31.8511778 103.728727,31.9164897 103.728727,31.9959998 Z M105.364364,27.6343029 L105.364364,29.2699393 C105.364364,29.3494494 105.338807,29.4147612 105.287693,29.4658749 C105.23658,29.5169885 105.171268,29.5425453 105.091758,29.5425453 L99.6396365,29.5425453 C99.5601264,29.5425453 99.4948146,29.5169885 99.4437009,29.4658749 C99.3925873,29.4147612 99.3670305,29.3494494 99.3670305,29.2699393 L99.3670305,27.6343029 C99.3670305,27.5547928 99.3925873,27.489481 99.4437009,27.4383673 C99.4948146,27.3872537 99.5601264,27.3616969 99.6396365,27.3616969 L105.091758,27.3616969 C105.171268,27.3616969 105.23658,27.3872537 105.287693,27.4383673 C105.338807,27.489481 105.364364,27.5547928 105.364364,27.6343029 Z M107,23.2726061 L107,24.9082424 C107,24.9877525 106.974443,25.0530643 106.92333,25.104178 C106.872216,25.1552916 106.806904,25.1808484 106.727394,25.1808484 L99.6396365,25.1808484 C99.5601264,25.1808484 99.4948146,25.1552916 99.4437009,25.104178 C99.3925873,25.0530643 99.3670305,24.9877525 99.3670305,24.9082424 L99.3670305,23.2726061 C99.3670305,23.193096 99.3925873,23.1277841 99.4437009,23.0766705 C99.4948146,23.0255568 99.5601264,23 99.6396365,23 L106.727394,23 C106.806904,23 106.872216,23.0255568 106.92333,23.0766705 C106.974443,23.1277841 107,23.193096 107,23.2726061 Z" id="Shape-Copy-6"></path>
                </g>
            </g>
        </g>
    </g>
</svg>