<?xml version="1.0" encoding="UTF-8"?>
<svg width="15px" height="15px" viewBox="0 0 15 15" version="1.1" xmlns="http://www.w3.org/2000/svg" xmlns:xlink="http://www.w3.org/1999/xlink">
    <!-- Generator: Sketch 52.2 (67145) - http://www.bohemiancoding.com/sketch -->
    <title>Shape Copy 5</title>
    <desc>Created with Sketch.</desc>
    <g id="Page-1" stroke="none" stroke-width="1" fill="none" fill-rule="evenodd" opacity="0.5">
        <g id="Site" transform="translate(-904.000000, -5070.000000)" fill="#737373" fill-rule="nonzero">
            <g id="Data-Table" transform="translate(249.000000, 5042.000000)">
                <g id="Impressions-Copy" transform="translate(626.000000, 4.000000)">
                    <path d="M38.9172651,37.125 L38.9172651,38.7321429 C38.9172651,38.8102679 38.8921535,38.874442 38.8419303,38.9246652 C38.7917071,38.9748884 38.727533,39 38.649408,39 L36.5065509,39 C36.4284259,39 36.3642517,38.9748884 36.3140285,38.9246652 C36.2638053,38.874442 36.2386937,38.8102679 36.2386937,38.7321429 L36.2386937,37.125 C36.2386937,37.046875 36.2638053,36.9827009 36.3140285,36.9324777 C36.3642517,36.8822545 36.4284259,36.8571429 36.5065509,36.8571429 L38.649408,36.8571429 C38.727533,36.8571429 38.7917071,36.8822545 38.8419303,36.9324777 C38.8921535,36.9827009 38.9172651,37.046875 38.9172651,37.125 Z M34.899408,36.0535714 C34.899408,36.1205357 34.8715062,36.1875 34.8157026,36.2544643 L32.1455017,38.9246652 C32.0896982,38.9748884 32.0255241,39 31.9529794,39 C31.8860151,39 31.821841,38.9748884 31.7604571,38.9246652 L29.0818857,36.2460938 C28.9981803,36.156808 28.9786491,36.0591518 29.0232919,35.953125 C29.0679348,35.8415179 29.1516401,35.7857143 29.274408,35.7857143 L30.8815509,35.7857143 L30.8815509,24.2678571 C30.8815509,24.1897321 30.9066625,24.125558 30.9568857,24.0753348 C31.0071089,24.0251116 31.071283,24 31.149408,24 L32.7565509,24 C32.8346759,24 32.89885,24.0251116 32.9490732,24.0753348 C32.9992964,24.125558 33.024408,24.1897321 33.024408,24.2678571 L33.024408,35.7857143 L34.6315509,35.7857143 C34.7096759,35.7857143 34.77385,35.8108259 34.8240732,35.8610491 C34.8742964,35.9112723 34.899408,35.9754464 34.899408,36.0535714 Z M40.524408,32.8392857 L40.524408,34.4464286 C40.524408,34.5245536 40.4992964,34.5887277 40.4490732,34.6389509 C40.39885,34.6891741 40.3346759,34.7142857 40.2565509,34.7142857 L36.5065509,34.7142857 C36.4284259,34.7142857 36.3642517,34.6891741 36.3140285,34.6389509 C36.2638053,34.5887277 36.2386937,34.5245536 36.2386937,34.4464286 L36.2386937,32.8392857 C36.2386937,32.7611607 36.2638053,32.6969866 36.3140285,32.6467634 C36.3642517,32.5965402 36.4284259,32.5714286 36.5065509,32.5714286 L40.2565509,32.5714286 C40.3346759,32.5714286 40.39885,32.5965402 40.4490732,32.6467634 C40.4992964,32.6969866 40.524408,32.7611607 40.524408,32.8392857 Z M42.1315509,28.5535714 L42.1315509,30.1607143 C42.1315509,30.2388393 42.1064392,30.3030134 42.056216,30.3532366 C42.0059928,30.4034598 41.9418187,30.4285714 41.8636937,30.4285714 L36.5065509,30.4285714 C36.4284259,30.4285714 36.3642517,30.4034598 36.3140285,30.3532366 C36.2638053,30.3030134 36.2386937,30.2388393 36.2386937,30.1607143 L36.2386937,28.5535714 C36.2386937,28.4754464 36.2638053,28.4112723 36.3140285,28.3610491 C36.3642517,28.3108259 36.4284259,28.2857143 36.5065509,28.2857143 L41.8636937,28.2857143 C41.9418187,28.2857143 42.0059928,28.3108259 42.056216,28.3610491 C42.1064392,28.4112723 42.1315509,28.4754464 42.1315509,28.5535714 Z M43.7386937,24.2678571 L43.7386937,25.875 C43.7386937,25.953125 43.7135821,26.0172991 43.6633589,26.0675223 C43.6131357,26.1177455 43.5489616,26.1428571 43.4708366,26.1428571 L36.5065509,26.1428571 C36.4284259,26.1428571 36.3642517,26.1177455 36.3140285,26.0675223 C36.2638053,26.0172991 36.2386937,25.953125 36.2386937,25.875 L36.2386937,24.2678571 C36.2386937,24.1897321 36.2638053,24.125558 36.3140285,24.0753348 C36.3642517,24.0251116 36.4284259,24 36.5065509,24 L43.4708366,24 C43.5489616,24 43.6131357,24.0251116 43.6633589,24.0753348 C43.7135821,24.125558 43.7386937,24.1897321 43.7386937,24.2678571 Z" id="Shape-Copy-5"></path>
                </g>
            </g>
        </g>
    </g>
</svg>