<?xml version="1.0" encoding="UTF-8"?>
<svg width="16px" height="16px" viewBox="0 0 16 16" version="1.1" xmlns="http://www.w3.org/2000/svg" xmlns:xlink="http://www.w3.org/1999/xlink">
    <!-- Generator: Sketch 52.5 (67469) - http://www.bohemiancoding.com/sketch -->
    <title>breakage study icon</title>
    <desc>Created with Sketch.</desc>
    <g id="breakage-study-icon" stroke="none" stroke-width="1" fill="none" fill-rule="evenodd">
        <path d="M11.5060044,4.95298307 C11.7611246,5.20746372 12.1740782,5.20746372 12.4291983,4.95298307 L14.6316611,2.75344692 C15.2891274,4.01736178 15.0506357,5.561708 14.0425207,6.56840899 C13.0344057,7.57510997 11.4897263,7.81143375 10.2267355,7.15219404 L8.99559358,8.38171004 L12.0493848,11.4312739 L13.8122005,12.2692699 L14.7357196,14.1133813 L13.8122005,15.0362499 L11.9654877,14.1143568 L11.126191,12.353167 L8.07239973,9.30360315 L2.61908494,14.7491136 C2.36284093,15.0138123 2.16773127,14.9575557 1.81133097,14.8642283 C1.46780018,14.7841915 1.19937409,14.5162695 1.11869171,14.1728897 C1.02536425,13.8168146 0.967481725,13.621705 1.23413158,13.3661113 L6.68744638,7.92060089 L5.96391475,7.19934554 L4.5789614,7.19934554 L1.11641543,3.74070176 L1,2.47444012 L2.19472144,1.28101941 L3.4248878,1.4358064 L6.88580786,4.89347463 L6.88580786,6.27647688 L7.60901431,6.99870778 L8.84178213,5.76854142 C8.18466885,4.50460183 8.42339468,2.96047315 9.43152152,1.95398349 C10.4396484,0.947493827 11.984163,0.711277979 13.2470329,1.37044466 L11.0442449,3.56965563 C10.9216226,3.69170867 10.8526861,3.85759014 10.8526861,4.03060219 C10.8526861,4.20361424 10.9216226,4.36949571 11.0442449,4.49154874 L11.5060044,4.95298307 Z" id="fix.svg" fill="#525254"></path>
    </g>
</svg>