<?xml version="1.0" encoding="UTF-8"?>
<svg width="25px" height="18px" viewBox="0 0 25 18" version="1.1" xmlns="http://www.w3.org/2000/svg" xmlns:xlink="http://www.w3.org/1999/xlink">
    <!-- Generator: Sketch 52.5 (67469) - http://www.bohemiancoding.com/sketch -->
    <title>twitter-icon</title>
    <desc>Created with Sketch.</desc>
    <defs>
        <path d="M19.543286,2.97006518 C19.5239999,2.96363647 19.5111425,2.94435033 19.4918563,2.9314929 C18.5789791,2.07004543 17.5053842,1.65860783 16.2710714,1.71003753 L16.2324991,1.62003555 C16.2453565,1.61360684 16.2517852,1.61360684 16.2582139,1.61360684 C17.3768099,1.35002963 18.0389673,1.08645241 18.2382574,0.797160351 C18.3089732,0.5657267 18.2254,0.43715245 17.9811089,0.405008888 C17.4153822,0.475724725 16.8946565,0.597870263 16.4317892,0.784302926 C17.0232307,0.405008888 17.2482357,0.135002963 17.1196614,0 C16.5410773,0.0192861375 15.9174922,0.315006913 15.2617635,0.900019751 C15.5060546,0.482153438 15.5960565,0.2571485 15.5317694,0.218576225 C15.2231912,0.43715245 14.9467566,0.668586101 14.7153229,0.919305888 C14.2203121,1.47217516 13.8217319,1.98647216 13.5195824,2.45576818 L13.5002963,2.49434045 C12.7159933,3.78008295 12.1695528,5.06582545 11.8416884,6.37728281 L11.7195429,6.47371349 L11.693828,6.49942834 C11.224532,5.90155808 10.6588053,5.40654722 9.98379052,5.00153833 C9.18663017,4.4743839 8.24803814,3.97937304 7.16801444,3.4972196 C5.98513134,2.88649192 4.78939082,2.37862363 3.58079287,1.98004345 C3.57436415,3.3429305 4.23652154,4.42938292 5.5544076,5.22011455 L5.5544076,5.2458294 C5.08511159,5.23297198 4.63510172,5.31011653 4.20437798,5.44511949 C4.28795124,6.71157586 5.18154228,7.57945204 6.86586496,8.06160548 L6.85943624,8.08732033 C6.19727886,8.04874806 5.65083829,8.28018171 5.22654327,8.76233515 C5.77941254,9.85521627 6.76300556,10.3823707 8.18375102,10.3373697 C7.90731638,10.4852301 7.68231144,10.6459479 7.54087977,10.8259519 C7.27730256,11.0959578 7.19372929,11.4173934 7.27730256,11.7902587 C7.58588076,12.343128 8.13232132,12.6002765 8.9423391,12.5617042 L8.98734008,12.6195626 L8.96162523,12.6452775 C7.56659462,14.0917378 5.88870066,14.7474665 3.91508592,14.6060348 L3.88294235,14.625321 C2.68077311,14.6188922 1.39503061,14.0338794 0,12.8767111 C1.40145933,14.9081843 3.25935724,16.3739308 5.56083632,17.2932366 C8.19660844,18.1675415 10.8259519,18.2318287 13.4552953,17.4796693 L13.5002963,17.4796693 C16.0524951,16.7403674 18.2125425,15.2167625 19.9997246,12.9152834 C20.8225998,11.7066855 21.3368968,10.5559459 21.5426156,9.4566361 C22.8733591,9.50163708 23.837666,9.11591433 24.4291075,8.29303913 L24.4162501,8.27375299 C23.9726689,8.42804209 23.1047927,8.38304111 21.8190502,8.11946389 L21.8190502,7.97160351 C21.8190502,7.96517479 21.8190502,7.96517479 21.825479,7.97160351 C23.233367,7.81088569 24.0626709,7.35444711 24.3326768,6.59585903 C23.3490838,6.98158178 22.3783482,6.98801049 21.4204701,6.62800259 C21.2468948,5.29083039 19.6054302,4.07580373 18.5254065,2.97006518" id="path-1"></path>
    </defs>
    <g id="Page-1" stroke="none" stroke-width="1" fill="none" fill-rule="evenodd">
        <g id="Public-Logged-Out-Homepage" transform="translate(-721.000000, -2083.000000)">
            <g transform="translate(300.000000, 235.000000)" id="Browser-Chrome">
                <g transform="translate(0.000000, 31.000000)">
                    <g id="Footer" transform="translate(0.000000, 1684.000000)">
                        <g id="Firefox-Copy" transform="translate(421.000000, 56.000000)">
                            <g id="icon-/-social-/-twitter-/-gray" transform="translate(0.000000, 77.000000)">
                                <mask id="mask-2" fill="white">
                                    <use xlink:href="#path-1"></use>
                                </mask>
                                <use id="twitter-icon" fill="#FFFFFF" xlink:href="#path-1"></use>
                            </g>
                        </g>
                    </g>
                </g>
            </g>
        </g>
    </g>
</svg>